<svg width="16" height="16"  viewBox="0 0 4.233 4.233" xmlns="http://www.w3.org/2000/svg">
<path d="M2.118 0C1.212 0 .44.568.14 1.367h.74l.774 1.63.296-.45c-.296-.478-.478-.87-.478-1.166 0-.34.24-.688.65-.688s.655.35.655.688c0 .292-.18.69-.477 1.166l.29.448.774-1.63h.736A2.12 2.12 0 0 0 2.118 0zm.001.985a.4.4 0 0 0-.084.009.34.34 0 0 0-.184.106.41.41 0 0 0-.095.281c0 .205.105.454.363.884.263-.43.363-.678.363-.884 0-.272-.182-.397-.363-.397zm0 .272c.09 0 .162.072.162.167s-.072.167-.162.167-.162-.077-.162-.167.072-.167.162-.167zM.05 1.66a2.12 2.12 0 0 0-.05.458c0 1.17.948 2.116 2.116 2.116a2.12 2.12 0 0 0 2.117-2.116c0-.154-.017-.308-.05-.458h-.636L2.62 3.61l-.502-.784-.502.784-.922-1.95z" fill="#000"/>
</svg>